<svg width="123" height="29" viewBox="0 0 123 29" fill="none" xmlns="http://www.w3.org/2000/svg">
<g clip-path="url(#clip0_1_7747)">
<path d="M116.65 0C117.903 0 119.127 0.371424 120.168 1.0673C121.21 1.76318 122.022 2.75226 122.501 3.90947C122.98 5.06667 123.106 6.34003 122.861 7.56851C122.617 8.79699 122.014 9.92542 121.128 10.8111C120.242 11.6968 119.114 12.3 117.886 12.5443C116.657 12.7887 115.384 12.6633 114.226 12.1839C113.069 11.7046 112.08 10.8929 111.384 9.85143C110.688 8.80997 110.317 7.58555 110.317 6.333C110.317 4.65338 110.984 3.04256 112.172 1.85489C113.36 0.667225 114.97 0 116.65 0V0Z" fill="#6172F3"/>
<path d="M117.107 2.77301L113.419 7.19801H116.738L116.369 10.148L120.057 5.72301H116.738L116.826 5.01501L117.107 2.77301Z" fill="white"/>
<path d="M0.064 22.667V20.206L11.25 4.16701H0V0.854013H16.151V3.31501L4.975 19.354H16.217V22.667H0.064ZM24.588 22.997C23.1779 23.047 21.7948 22.6023 20.678 21.74C20.1492 21.2938 19.7325 20.7298 19.4614 20.0932C19.1903 19.4567 19.0723 18.7654 19.117 18.075C19.0527 17.0448 19.3694 16.0268 20.007 15.215C20.6269 14.5192 21.4259 14.0069 22.317 13.734C23.2956 13.4186 24.3044 13.2061 25.327 13.1C26.7663 12.9447 27.8003 12.8003 28.429 12.667C29.0577 12.5337 29.372 12.1893 29.372 11.634V11.567C29.3928 11.2234 29.3398 10.8793 29.2167 10.5578C29.0935 10.2363 28.903 9.94483 28.658 9.70301C28.0823 9.22803 27.3466 8.9915 26.602 9.04201C25.807 8.99871 25.0196 9.21567 24.359 9.66001C23.8471 10.0211 23.4586 10.5308 23.246 11.12L19.646 10.609C20.0094 9.20154 20.906 7.99054 22.146 7.23201C23.4893 6.4445 25.0265 6.04954 26.583 6.09201C27.3724 6.09295 28.1591 6.18591 28.927 6.36901C29.6908 6.54609 30.4176 6.85615 31.074 7.28501C31.7322 7.72027 32.2706 8.31373 32.64 9.01101C33.0602 9.84941 33.2634 10.7798 33.231 11.717V22.667H29.517V20.419H29.389C28.992 21.1608 28.4054 21.784 27.689 22.225C26.7527 22.7792 25.6748 23.0476 24.588 22.997V22.997ZM25.588 20.163C26.0931 20.1897 26.5984 20.115 27.0742 19.9432C27.5499 19.7715 27.9864 19.5062 28.358 19.163C28.6834 18.8612 28.9425 18.495 29.1188 18.0877C29.2951 17.6804 29.3847 17.2408 29.382 16.797V14.867C29.1102 15.0475 28.8036 15.1691 28.482 15.224C28.0453 15.3267 27.582 15.4137 27.092 15.485L25.845 15.667C25.0868 15.7536 24.3545 15.9946 23.693 16.375C23.4133 16.5425 23.1849 16.7835 23.0327 17.0718C22.8806 17.3601 22.8104 17.6846 22.83 18.01C22.8118 18.3223 22.8737 18.634 23.0099 18.9156C23.146 19.1972 23.3519 19.4394 23.608 19.619C24.1958 20.003 24.8885 20.1945 25.59 20.167L25.588 20.163ZM37.117 28.803V6.30301H40.91V9.00901H41.134C41.3681 8.55706 41.6483 8.13047 41.97 7.73601C42.3728 7.24982 42.8737 6.85418 43.44 6.57501C44.1799 6.22625 44.9926 6.05993 45.81 6.09001C47.0214 6.07491 48.2111 6.41151 49.235 7.05901C50.2987 7.75664 51.1414 8.74324 51.664 9.90301C52.3041 11.3498 52.6117 12.9217 52.564 14.503C52.6088 16.0764 52.307 17.6403 51.68 19.084C51.1671 20.254 50.3319 21.2539 49.272 21.967C48.2433 22.6306 47.041 22.9744 45.817 22.955C45.0144 22.9825 44.2165 22.8219 43.487 22.486C42.9198 22.2124 42.4142 21.8262 42.001 21.351C41.6665 20.9633 41.3754 20.5401 41.133 20.089H40.973V28.803H37.117ZM40.899 14.485C40.8355 15.8371 41.1842 17.1766 41.899 18.326C42.206 18.7952 42.6293 19.1768 43.1278 19.4336C43.6262 19.6904 44.1828 19.8135 44.743 19.791C45.3157 19.8187 45.8855 19.6946 46.3948 19.4312C46.9041 19.1678 47.3347 18.7744 47.643 18.291C48.3413 17.15 48.6861 15.8277 48.634 14.491C48.6892 13.1677 48.3479 11.8581 47.654 10.73C47.3403 10.2519 46.9067 9.86456 46.3963 9.60659C45.886 9.34863 45.317 9.22913 44.746 9.26001C44.1883 9.23321 43.6329 9.34985 43.1331 9.5988C42.6333 9.84775 42.2056 10.2207 41.891 10.682C41.1787 11.8182 40.8325 13.1457 40.899 14.485ZM55.856 28.803V6.30301H59.649V9.00901H59.873C60.1071 8.55706 60.3873 8.13047 60.709 7.73601C61.1118 7.24982 61.6127 6.85418 62.179 6.57501C62.9189 6.22625 63.7316 6.05993 64.549 6.09001C65.7604 6.07491 66.9501 6.41151 67.974 7.05901C69.0377 7.75664 69.8804 8.74324 70.403 9.90301C71.0431 11.3498 71.3507 12.9217 71.303 14.503C71.3476 16.0775 71.0451 17.6425 70.417 19.087C69.9044 20.2555 69.0704 21.2543 68.012 21.967C66.9845 22.6311 65.7833 22.976 64.56 22.958C63.7561 22.9851 62.9571 22.8234 62.227 22.486C61.6598 22.2124 61.1542 21.8262 60.741 21.351C60.4065 20.9633 60.1154 20.5401 59.873 20.089H59.717V28.803H55.856ZM59.638 14.485C59.5745 15.8371 59.9232 17.1766 60.638 18.326C60.945 18.7952 61.3683 19.1768 61.8668 19.4336C62.3652 19.6904 62.9218 19.8135 63.482 19.791C64.0547 19.8187 64.6245 19.6946 65.1338 19.4312C65.6431 19.1678 66.0737 18.7744 66.382 18.291C67.0803 17.15 67.4251 15.8277 67.373 14.491C67.4281 13.1677 67.0869 11.8581 66.393 10.73C66.0793 10.2519 65.6457 9.86456 65.1353 9.60659C64.625 9.34863 64.056 9.22913 63.485 9.26001C62.9272 9.23321 62.3719 9.34985 61.8721 9.5988C61.3723 9.84775 60.9446 10.2207 60.63 10.682C59.9177 11.8182 59.5715 13.1457 59.638 14.485V14.485ZM81.838 22.985C80.3567 23.0247 78.8917 22.6685 77.594 21.953C76.4118 21.2718 75.4574 20.2563 74.851 19.034C74.1828 17.6467 73.8541 16.1204 73.892 14.581C73.8591 13.0473 74.1876 11.5273 74.851 10.144C75.4498 8.91365 76.3862 7.87904 77.551 7.16101C78.7854 6.42736 80.2014 6.05619 81.637 6.09001C82.9279 6.07787 84.2029 6.37553 85.355 6.95801C86.5172 7.56209 87.4699 8.5032 88.088 9.65801C88.8274 11.1105 89.1817 12.7284 89.117 14.357V15.54H77.717C77.665 16.7407 78.0838 17.9143 78.884 18.811C79.2767 19.2049 79.7472 19.5126 80.2654 19.7144C80.7837 19.9162 81.3384 20.0077 81.894 19.983C82.6485 20.0024 83.394 19.8165 84.051 19.445C84.6557 19.0894 85.1173 18.5337 85.356 17.874L88.956 18.274C88.628 19.6762 87.7762 20.8998 86.575 21.694C85.1669 22.6009 83.5137 23.0524 81.84 22.987L81.838 22.985ZM77.728 12.94H85.417C85.4459 11.9197 85.0727 10.9288 84.378 10.181C84.0321 9.81974 83.6135 9.53603 83.1497 9.34865C82.686 9.16126 82.1878 9.07447 81.688 9.09401C81.1672 9.07473 80.6482 9.1664 80.1654 9.36294C79.6827 9.55948 79.2473 9.8564 78.888 10.234C78.1839 10.9641 77.7713 11.9266 77.728 12.94ZM98.448 22.955C97.2253 22.9737 96.0245 22.6299 94.997 21.967C93.9375 21.2547 93.1024 20.2559 92.589 19.087C91.962 17.6433 91.6602 16.0794 91.705 14.506C91.6573 12.9247 91.9649 11.3528 92.605 9.90601C93.1284 8.7452 93.9729 7.75837 95.039 7.06201C96.0617 6.41586 97.2494 6.07934 98.459 6.09301C99.2765 6.06136 100.09 6.22775 100.829 6.57801C101.393 6.86098 101.893 7.25604 102.299 7.73901C102.626 8.12991 102.906 8.55705 103.135 9.01201H103.295V0.851013H107.162V22.667H103.369V20.089H103.135C102.898 20.5424 102.609 20.966 102.272 21.351C101.856 21.8255 101.349 22.2115 100.781 22.486C100.051 22.8224 99.2516 22.983 98.448 22.955V22.955ZM99.524 19.791C100.084 19.8135 100.641 19.6904 101.139 19.4336C101.638 19.1768 102.061 18.7952 102.368 18.326C103.083 17.1766 103.432 15.8371 103.368 14.485C103.436 13.1438 103.09 11.814 102.377 10.676C102.062 10.2147 101.635 9.84175 101.135 9.5928C100.635 9.34385 100.08 9.2272 99.522 9.25401C98.951 9.22312 98.382 9.34263 97.8717 9.60059C97.3614 9.85856 96.9277 10.2459 96.614 10.724C95.9201 11.8521 95.5789 13.1617 95.634 14.485C95.5819 15.8217 95.9267 17.144 96.625 18.285C96.9325 18.7694 97.3626 19.1638 97.8717 19.4283C98.3809 19.6928 98.9509 19.8179 99.524 19.791V19.791Z" fill="#2F343A"/>
</g>
<defs>
<clipPath id="clip0_1_7747">
<rect width="122.983" height="28.803" fill="white"/>
</clipPath>
</defs>
</svg>
